<svg xmlns="http://www.w3.org/2000/svg" viewBox="0 0 900 650"><defs><linearGradient id="g" x1="0" x2="1"><stop stop-color="#0e7773"/><stop offset=".5" stop-color="#f0a21b"/><stop offset="1" stop-color="#f04b20"/></linearGradient><filter id="s"><feDropShadow dx="0" dy="20" stdDeviation="18" flood-opacity=".28"/></filter></defs><rect width="900" height="650" rx="60" fill="url(#g)"/><path d="M0 430 C180 340 250 520 430 420 S700 270 900 390 V650 H0Z" fill="#fff1cf" opacity=".55"/><rect x="105" y="95" width="690" height="420" rx="34" fill="#fff8df" opacity=".88" filter="url(#s)"/><rect x="105" y="95" width="690" height="70" rx="34" fill="#003f42"/><circle cx="150" cy="130" r="12" fill="#f04b20"/><circle cx="185" cy="130" r="12" fill="#f0a21b"/><circle cx="220" cy="130" r="12" fill="#9bc8b0"/><rect x="155" y="210" width="260" height="46" rx="23" fill="#f04b20"/><rect x="155" y="285" width="470" height="28" rx="14" fill="#0e7773" opacity=".8"/><rect x="155" y="335" width="360" height="24" rx="12" fill="#83751f" opacity=".72"/><rect x="590" y="205" width="125" height="125" rx="25" fill="#f0a21b"/><text x="150" y="445" font-family="Impact,Arial" font-size="70" fill="#003f42">WEBSITE</text></svg>